<mxfile host="app.diagrams.net" modified="2024-06-08T22:12:23.299Z" agent="Mozilla/5.0 (Macintosh; Intel Mac OS X 10_15_7) AppleWebKit/537.36 (KHTML, like Gecko) Chrome/125.0.0.0 Safari/537.36" etag="L2OgZsoWJn8ef6UKOYAD" version="24.4.7" type="google">
  <diagram name="Page-1" id="c4acf3e9-155e-7222-9cf6-157b1a14988f">
    <mxGraphModel grid="0" page="0" gridSize="10" guides="1" tooltips="1" connect="1" arrows="1" fold="1" pageScale="1" pageWidth="850" pageHeight="1100" background="#fafafa" math="0" shadow="0">
      <root>
        <mxCell id="0" />
        <mxCell id="1" parent="0" />
        <mxCell id="5d2195bd80daf111-18" value="&lt;p style=&quot;margin:0px;margin-top:4px;text-align:center;&quot;&gt;&lt;i&gt;&amp;lt;&amp;lt;class&amp;gt;&amp;gt;&lt;/i&gt;&lt;br&gt;&lt;b&gt;Dishes&lt;/b&gt;&lt;/p&gt;&lt;hr size=&quot;1&quot;&gt;&lt;p style=&quot;margin:0px;margin-left:4px;&quot;&gt;protected String dishName&lt;/p&gt;&lt;p style=&quot;margin:0px;margin-left:4px;&quot;&gt;protected String dishType&lt;/p&gt;&lt;p style=&quot;margin:0px;margin-left:4px;&quot;&gt;protected String dishCategory&lt;/p&gt;&lt;p style=&quot;margin:0px;margin-left:4px;&quot;&gt;protected double unitPrice&lt;/p&gt;&lt;hr size=&quot;1&quot;&gt;&lt;p style=&quot;margin:0px;margin-left:4px;&quot;&gt;public Dishes(Dishes d)&lt;/p&gt;&lt;p style=&quot;margin:0px;margin-left:4px;&quot;&gt;public boolean isGlutenFree()&lt;/p&gt;&lt;p style=&quot;margin:0px;margin-left:4px;&quot;&gt;public String getDishCategory)&lt;/p&gt;&lt;p style=&quot;margin:0px;margin-left:4px;&quot;&gt;public boolean isVeg)&lt;/p&gt;&lt;p style=&quot;margin:0px;margin-left:4px;&quot;&gt;public String getDishName()&lt;/p&gt;&lt;p style=&quot;margin:0px;margin-left:4px;&quot;&gt;public void setDishName(String dishName)&lt;/p&gt;&lt;p style=&quot;margin:0px;margin-left:4px;&quot;&gt;public double getUnitPrice)&lt;/p&gt;&lt;p style=&quot;margin:0px;margin-left:4px;&quot;&gt;public void setUnitPrice(double unitPrice)&lt;/p&gt;&lt;p style=&quot;margin:0px;margin-left:4px;&quot;&gt;public String getDishType)&lt;/p&gt;&lt;p style=&quot;margin:0px;margin-left:4px;&quot;&gt;public String toString()&lt;/p&gt;" style="verticalAlign=top;align=left;overflow=fill;fontSize=12;fontFamily=Helvetica;html=1;rounded=0;shadow=1;comic=0;labelBackgroundColor=none;strokeWidth=1;fillColor=#0050ef;fontColor=#ffffff;strokeColor=#1EACBC;" vertex="1" parent="1">
          <mxGeometry x="-836.5" y="152" width="255" height="280" as="geometry" />
        </mxCell>
        <mxCell id="5d2195bd80daf111-19" value="&lt;p style=&quot;margin:0px;margin-top:4px;text-align:center;&quot;&gt;&lt;i&gt;&amp;lt;&amp;lt;Class&amp;gt;&amp;gt;&lt;/i&gt;&lt;br&gt;&lt;b&gt;User&lt;/b&gt;&lt;/p&gt;&lt;hr size=&quot;1&quot;&gt;&lt;p style=&quot;margin:0px;margin-left:4px;&quot;&gt;protected int ID&lt;/p&gt;&lt;p style=&quot;margin:0px;margin-left:4px;&quot;&gt;protected String username&lt;/p&gt;&lt;p style=&quot;margin:0px;margin-left:4px;&quot;&gt;protected String password&lt;/p&gt;&lt;p style=&quot;margin:0px;margin-left:4px;&quot;&gt;protected String userType&lt;/p&gt;&lt;p style=&quot;margin:0px;margin-left:4px;&quot;&gt;protected String Name&lt;/p&gt;&lt;p style=&quot;margin:0px;margin-left:4px;&quot;&gt;private static int counter&lt;/p&gt;&lt;hr size=&quot;1&quot;&gt;&lt;p style=&quot;margin:0px;margin-left:4px;&quot;&gt;public User (String username, String password, String user Type,&amp;nbsp;&lt;span style=&quot;background-color: initial;&quot;&gt;String name)&lt;/span&gt;&lt;/p&gt;&lt;p style=&quot;margin:0px;margin-left:4px;&quot;&gt;public String getUsername()&lt;/p&gt;&lt;p style=&quot;margin:0px;margin-left:4px;&quot;&gt;public String getName()&lt;/p&gt;&lt;p style=&quot;margin:0px;margin-left:4px;&quot;&gt;public void setName(String name)&lt;/p&gt;&lt;p style=&quot;margin:0px;margin-left:4px;&quot;&gt;public void setUsername(String username)&lt;/p&gt;&lt;p style=&quot;margin:0px;margin-left:4px;&quot;&gt;public String getUserType)&lt;/p&gt;&lt;p style=&quot;margin:0px;margin-left:4px;&quot;&gt;public void setUserType(String userType)&lt;/p&gt;&lt;p style=&quot;margin:0px;margin-left:4px;&quot;&gt;public int getID ()&lt;/p&gt;&lt;p style=&quot;margin:0px;margin-left:4px;&quot;&gt;public void setPassword (String password)&lt;/p&gt;&lt;p style=&quot;margin:0px;margin-left:4px;&quot;&gt;public String getPassword ()&lt;/p&gt;" style="verticalAlign=top;align=left;overflow=fill;fontSize=12;fontFamily=Helvetica;html=1;rounded=0;shadow=1;comic=0;labelBackgroundColor=none;strokeWidth=1;fillColor=#0050ef;fontColor=#ffffff;strokeColor=#1EACBC;" vertex="1" parent="1">
          <mxGeometry x="-548" y="239" width="311" height="325" as="geometry" />
        </mxCell>
        <mxCell id="gZTD5GQBzk73rXgGusnl-2" style="edgeStyle=orthogonalEdgeStyle;rounded=0;orthogonalLoop=1;jettySize=auto;html=1;exitX=0.5;exitY=0;exitDx=0;exitDy=0;fillColor=#0050ef;strokeColor=#1f39bd;shadow=1;strokeWidth=4;endArrow=block;endFill=0;" edge="1" parent="1" source="5d2195bd80daf111-20" target="5d2195bd80daf111-19">
          <mxGeometry relative="1" as="geometry">
            <Array as="points">
              <mxPoint x="-359" y="646" />
              <mxPoint x="-421" y="646" />
            </Array>
          </mxGeometry>
        </mxCell>
        <mxCell id="5d2195bd80daf111-20" value="&lt;p style=&quot;margin:0px;margin-top:4px;text-align:center;&quot;&gt;&lt;i&gt;&amp;lt;&amp;lt;SubClass&amp;gt;&amp;gt;&lt;/i&gt;&lt;br&gt;&lt;b&gt;Restaurant&lt;/b&gt;&lt;/p&gt;&lt;hr size=&quot;1&quot;&gt;&lt;p style=&quot;margin:0px;margin-left:4px;&quot;&gt;private Location location&lt;/p&gt;&lt;p style=&quot;margin:0px;margin-left:4px;&quot;&gt;private int completedOrders&lt;/p&gt;&lt;p style=&quot;margin:0px;margin-left:4px;&quot;&gt;private ArrayList&amp;lt;Courier &amp;gt; availableCouriers&lt;/p&gt;&lt;p style=&quot;margin:0px;margin-left:4px;&quot;&gt;private Menu menu&lt;/p&gt;&lt;p style=&quot;margin:0px;margin-left:4px;&quot;&gt;private Double discountFactor&lt;/p&gt;&lt;hr size=&quot;1&quot;&gt;&lt;p style=&quot;margin:0px;margin-left:4px;&quot;&gt;public Restaurant (String username, String password, String&amp;nbsp;&lt;span style=&quot;background-color: initial;&quot;&gt;userType, String name, Location location)&lt;/span&gt;&lt;/p&gt;&lt;p style=&quot;margin:0px;margin-left:4px;&quot;&gt;public Location getLocation)&lt;/p&gt;&lt;p style=&quot;margin:0px;margin-left:4px;&quot;&gt;public void setLocation (Location location)&lt;/p&gt;&lt;p style=&quot;margin:0px;margin-left:4px;&quot;&gt;public Double getDiscountFactor ()&lt;/p&gt;&lt;p style=&quot;margin:0px;margin-left:4px;&quot;&gt;public void setDiscountFactor(Double newDiscount)&lt;/p&gt;&lt;p style=&quot;margin:0px;margin-left:4px;&quot;&gt;public ArrayList&amp;lt;Courier &amp;gt; getAvailableCouriers ()&lt;/p&gt;&lt;p style=&quot;margin:0px;margin-left:4px;&quot;&gt;public void addAvailableCourier (Courier courier)&lt;/p&gt;&lt;p style=&quot;margin:0px;margin-left:4px;&quot;&gt;public void removeAvailableCourier Courier courier)&lt;/p&gt;&lt;p style=&quot;margin:0px;margin-left:4px;&quot;&gt;public Menu getMenu()&lt;/p&gt;&lt;p style=&quot;margin:0px;margin-left:4px;&quot;&gt;public void getMenu(Customer c)&lt;/p&gt;&lt;p style=&quot;margin:0px;margin-left:4px;&quot;&gt;public void addToMenu (Dishes dish)&lt;/p&gt;&lt;p style=&quot;margin:0px;margin-left:4px;&quot;&gt;public void addDishToMeal (Meal meal, Dishes dish)&lt;/p&gt;&lt;p style=&quot;margin:0px;margin-left:4px;&quot;&gt;public void addMeal (Meal meal)&lt;/p&gt;&lt;p style=&quot;margin:0px;margin-left:4px;&quot;&gt;public void showMeal(String mealName)&lt;/p&gt;&lt;p style=&quot;margin:0px;margin-left:4px;&quot;&gt;public int getCompletedOrders ()&lt;/p&gt;&lt;p style=&quot;margin:0px;margin-left:4px;&quot;&gt;public void setCompletedOrders(int completedOrders)&lt;/p&gt;&lt;p style=&quot;margin:0px;margin-left:4px;&quot;&gt;public String toString()&lt;/p&gt;" style="verticalAlign=top;align=left;overflow=fill;fontSize=12;fontFamily=Helvetica;html=1;rounded=0;shadow=1;comic=0;labelBackgroundColor=none;strokeWidth=1;fillColor=#0050ef;fontColor=#ffffff;strokeColor=#1EACBC;" vertex="1" parent="1">
          <mxGeometry x="-387" y="708" width="565" height="385" as="geometry" />
        </mxCell>
        <mxCell id="TG9W3KDDZiWp2sQddhFQ-6" style="edgeStyle=orthogonalEdgeStyle;rounded=0;orthogonalLoop=1;jettySize=auto;html=1;fillColor=#0050ef;strokeColor=#1f39bd;shadow=1;strokeWidth=4;endArrow=block;endFill=0;entryX=0.25;entryY=1;entryDx=0;entryDy=0;" edge="1" parent="1" source="gZTD5GQBzk73rXgGusnl-3" target="5d2195bd80daf111-19">
          <mxGeometry relative="1" as="geometry">
            <Array as="points">
              <mxPoint x="-638" y="642" />
              <mxPoint x="-465" y="642" />
              <mxPoint x="-465" y="597" />
              <mxPoint x="-465" y="597" />
            </Array>
            <mxPoint x="-457" y="592" as="targetPoint" />
          </mxGeometry>
        </mxCell>
        <mxCell id="gZTD5GQBzk73rXgGusnl-3" value="&lt;p style=&quot;margin:0px;margin-top:4px;text-align:center;&quot;&gt;&lt;i&gt;&amp;lt;&amp;lt;SubClass&amp;gt;&amp;gt;&lt;/i&gt;&lt;br&gt;&lt;b&gt;Person&lt;/b&gt;&lt;/p&gt;&lt;hr size=&quot;1&quot;&gt;&lt;p style=&quot;margin:0px;margin-left:4px;&quot;&gt;protected String name&lt;/p&gt;&lt;p style=&quot;margin:0px;margin-left:4px;&quot;&gt;protected string surname&lt;/p&gt;&lt;hr size=&quot;1&quot;&gt;&lt;p style=&quot;margin:0px;margin-left:4px;&quot;&gt;public Person (String username, String password, String userType,&amp;nbsp;&lt;span style=&quot;background-color: initial;&quot;&gt;String name, String surname)&lt;/span&gt;&lt;/p&gt;&lt;p style=&quot;margin:0px;margin-left:4px;&quot;&gt;public String getSurname&lt;/p&gt;&lt;p style=&quot;margin:0px;margin-left:4px;&quot;&gt;public void set Surname(String surname)&lt;/p&gt;&lt;p style=&quot;margin:0px;margin-left:4px;&quot;&gt;public String getName()&lt;/p&gt;&lt;p style=&quot;margin:0px;margin-left:4px;&quot;&gt;public void setName (String name)&lt;/p&gt;&lt;p style=&quot;margin:0px;margin-left:4px;&quot;&gt;public String getFullName&lt;/p&gt;&lt;p style=&quot;margin:0px;margin-left:4px;&quot;&gt;&lt;br&gt;&lt;/p&gt;" style="verticalAlign=top;align=left;overflow=fill;fontSize=12;fontFamily=Helvetica;html=1;rounded=0;shadow=1;comic=0;labelBackgroundColor=none;strokeWidth=1;fillColor=#0050ef;fontColor=#ffffff;strokeColor=#1EACBC;" vertex="1" parent="1">
          <mxGeometry x="-1015" y="727" width="230" height="190" as="geometry" />
        </mxCell>
        <mxCell id="gZTD5GQBzk73rXgGusnl-5" value="&lt;p style=&quot;margin:0px;margin-top:4px;text-align:center;&quot;&gt;&lt;i&gt;&amp;lt;&amp;lt;class&amp;gt;&amp;gt;&lt;/i&gt;&lt;br&gt;&lt;b&gt;Location&lt;/b&gt;&lt;/p&gt;&lt;hr size=&quot;1&quot;&gt;&lt;p style=&quot;margin:0px;margin-left:4px;&quot;&gt;protected double lat&lt;/p&gt;&lt;p style=&quot;margin:0px;margin-left:4px;&quot;&gt;protected double lon&lt;/p&gt;&lt;hr size=&quot;1&quot;&gt;&lt;p style=&quot;margin:0px;margin-left:4px;&quot;&gt;public Location(double lat, double lon)&lt;/p&gt;&lt;p style=&quot;margin:0px;margin-left:4px;&quot;&gt;public void setLocation(double lat, double lon)&lt;/p&gt;&lt;p style=&quot;margin:0px;margin-left:4px;&quot;&gt;public void setLocation (Location I)&lt;/p&gt;&lt;p style=&quot;margin:0px;margin-left:4px;&quot;&gt;public Double[] getLocation)&lt;/p&gt;&lt;p style=&quot;margin:0px;margin-left:4px;&quot;&gt;public double getLatitude&lt;/p&gt;&lt;p style=&quot;margin:0px;margin-left:4px;&quot;&gt;public double getLongitude()&lt;/p&gt;" style="verticalAlign=top;align=left;overflow=fill;fontSize=12;fontFamily=Helvetica;html=1;rounded=0;shadow=1;comic=0;labelBackgroundColor=none;strokeWidth=1;fillColor=#0050ef;fontColor=#ffffff;strokeColor=#1EACBC;" vertex="1" parent="1">
          <mxGeometry x="-585.5" y="-324" width="260" height="210" as="geometry" />
        </mxCell>
        <mxCell id="gZTD5GQBzk73rXgGusnl-7" value="&lt;p style=&quot;margin:0px;margin-top:4px;text-align:center;&quot;&gt;&lt;i&gt;&amp;lt;&amp;lt;class&amp;gt;&amp;gt;&lt;/i&gt;&lt;br&gt;&lt;b&gt;Menu&lt;/b&gt;&lt;span style=&quot;color: rgba(0, 0, 0, 0); font-family: monospace; font-size: 0px; background-color: initial; text-align: left;&quot;&gt;%3CmxGraphModel%3E%3Croot%3E%3CmxCell%20id%3D%220%22%2F%3E%3CmxCell%20id%3D%221%22%20parent%3D%220%22%2F%3E%3CmxCell%20id%3D%222%22%20value%3D%22%26lt%3Bp%20style%3D%26quot%3Bmargin%3A0px%3Bmargin-top%3A4px%3Btext-align%3Acenter%3B%26quot%3B%26gt%3B%26lt%3Bi%26gt%3B%26amp%3Blt%3B%26amp%3Blt%3BInterface%26amp%3Bgt%3B%26amp%3Bgt%3B%26lt%3B%2Fi%26gt%3B%26lt%3Bbr%26gt%3B%26lt%3Bb%26gt%3BDishes%26lt%3B%2Fb%26gt%3B%26lt%3B%2Fp%26gt%3B%26lt%3Bhr%20size%3D%26quot%3B1%26quot%3B%26gt%3B%26lt%3Bp%20style%3D%26quot%3Bmargin%3A0px%3Bmargin-left%3A4px%3B%26quot%3B%26gt%3B%2B%20field1%3A%20Type%26lt%3Bbr%26gt%3B%2B%20field2%3A%20Type%26lt%3B%2Fp%26gt%3B%26lt%3Bhr%20size%3D%26quot%3B1%26quot%3B%26gt%3B%26lt%3Bp%20style%3D%26quot%3Bmargin%3A0px%3Bmargin-left%3A4px%3B%26quot%3B%26gt%3B%2B%20method1(Type)%3A%20Type%26lt%3Bbr%26gt%3B%2B%20method2(Type%2C%20Type)%3A%20Type%26lt%3B%2Fp%26gt%3B%22%20style%3D%22verticalAlign%3Dtop%3Balign%3Dleft%3Boverflow%3Dfill%3BfontSize%3D12%3BfontFamily%3DHelvetica%3Bhtml%3D1%3Brounded%3D0%3Bshadow%3D0%3Bcomic%3D0%3BlabelBackgroundColor%3Dnone%3BstrokeWidth%3D1%22%20vertex%3D%221%22%20parent%3D%221%22%3E%3CmxGeometry%20x%3D%22310%22%20y%3D%2230%22%20width%3D%22190%22%20height%3D%22140%22%20as%3D%22geometry%22%2F%3E%3C%2FmxCell%3E%3C%2Froot%3E%3C%2FmxGraphModel%3E&lt;/span&gt;&lt;/p&gt;&lt;hr size=&quot;1&quot;&gt;&lt;p style=&quot;margin:0px;margin-left:4px;&quot;&gt;protected ArrayList&amp;lt;Dishes&amp;gt; dish&lt;/p&gt;&lt;p style=&quot;margin:0px;margin-left:4px;&quot;&gt;protected ArrayList&amp;lt;Meal &amp;gt; meals&lt;/p&gt;&lt;p style=&quot;margin:0px;margin-left:4px;&quot;&gt;private ArrayList&amp;lt;Meal&amp;gt; specials&lt;/p&gt;&lt;p style=&quot;margin:0px;margin-left:4px;&quot;&gt;&lt;br&gt;&lt;/p&gt;&lt;p style=&quot;margin:0px;margin-left:4px;&quot;&gt;&lt;br&gt;&lt;/p&gt;&lt;hr size=&quot;1&quot;&gt;&lt;p style=&quot;margin:0px;margin-left:4px;&quot;&gt;public Menu()&lt;/p&gt;&lt;p style=&quot;margin:0px;margin-left:4px;&quot;&gt;public ArrayList&amp;lt;Meal&amp;gt; getAvailMeals)&lt;/p&gt;&lt;p style=&quot;margin:0px;margin-left:4px;&quot;&gt;public ArrayList&amp;lt;Dishes&amp;gt; getAvailDishes)&lt;/p&gt;&lt;p style=&quot;margin:0px;margin-left:4px;&quot;&gt;public void removeDish(Dishes d)&lt;/p&gt;&lt;p style=&quot;margin:0px;margin-left:4px;&quot;&gt;public void removeMeal (Meal m)&lt;/p&gt;&lt;p style=&quot;margin:0px;margin-left:4px;&quot;&gt;public void addDish(Dishes dish)&lt;/p&gt;&lt;p style=&quot;margin:0px;margin-left:4px;&quot;&gt;public void addDishToMeal (Meal m, Dishes dish)&lt;/p&gt;&lt;p style=&quot;margin:0px;margin-left:4px;&quot;&gt;public void addSpecial (Meal m, Double d)&lt;/p&gt;&lt;p style=&quot;margin:0px;margin-left:4px;&quot;&gt;public void removeSpecial (Meal m, Double d)&lt;/p&gt;&lt;p style=&quot;margin:0px;margin-left:4px;&quot;&gt;public void updateSpecialPrice (Double newDiscount, Double&lt;/p&gt;&lt;p style=&quot;margin:0px;margin-left:4px;&quot;&gt;oldDiscount)&lt;/p&gt;&lt;p style=&quot;margin:0px;margin-left:4px;&quot;&gt;public void addMeal (Meal m)&lt;/p&gt;&lt;p style=&quot;margin:0px;margin-left:4px;&quot;&gt;public void showMeal (String m)&lt;/p&gt;&lt;p style=&quot;margin:0px;margin-left:4px;&quot;&gt;public String toString()&lt;/p&gt;&lt;p style=&quot;margin:0px;margin-left:4px;&quot;&gt;public ArrayList&amp;lt;Meal&amp;gt; getSpecials)&lt;/p&gt;&lt;p style=&quot;margin:0px;margin-left:4px;&quot;&gt;public void setSpecials(ArrayList&amp;lt;Meal &amp;gt; specials)&lt;/p&gt;" style="verticalAlign=top;align=left;overflow=fill;fontSize=12;fontFamily=Helvetica;html=1;rounded=0;shadow=1;comic=0;labelBackgroundColor=none;strokeWidth=1;fillColor=#0050ef;fontColor=#ffffff;strokeColor=#1EACBC;" vertex="1" parent="1">
          <mxGeometry x="-1081.5" y="-324" width="356" height="390" as="geometry" />
        </mxCell>
        <mxCell id="gZTD5GQBzk73rXgGusnl-8" value="&lt;p style=&quot;margin:0px;margin-top:4px;text-align:center;&quot;&gt;&lt;i&gt;&amp;lt;&amp;lt;class&amp;gt;&amp;gt;&lt;/i&gt;&lt;br&gt;&lt;b&gt;Meal&lt;/b&gt;&lt;/p&gt;&lt;hr size=&quot;1&quot;&gt;&lt;p style=&quot;margin:0px;margin-left:4px;&quot;&gt;protected String mealName&lt;/p&gt;&lt;p style=&quot;margin:0px;margin-left:4px;&quot;&gt;protected Dishes dessert&lt;/p&gt;&lt;p style=&quot;margin:0px;margin-left:4px;&quot;&gt;protected Dishes main&lt;/p&gt;&lt;p style=&quot;margin:0px;margin-left:4px;&quot;&gt;protected Dishes starter&lt;/p&gt;&lt;p style=&quot;margin:0px;margin-left:4px;&quot;&gt;protected double price&lt;/p&gt;&lt;p style=&quot;margin:0px;margin-left:4px;&quot;&gt;protected boolean deal&lt;/p&gt;&lt;p style=&quot;margin:0px;margin-left:4px;&quot;&gt;protected double discount_rate&lt;/p&gt;&lt;p style=&quot;margin:0px;margin-left:4px;&quot;&gt;protected boolean halfMeal&lt;/p&gt;&lt;hr size=&quot;1&quot;&gt;&lt;p style=&quot;margin:0px;margin-left:4px;&quot;&gt;public Meal(String mealName, double price, boolean deal)&lt;/p&gt;&lt;p style=&quot;margin:0px;margin-left:4px;&quot;&gt;public Meal (String mealName)&lt;/p&gt;&lt;p style=&quot;margin:0px;margin-left:4px;&quot;&gt;public boolean isHalfMeal()&lt;/p&gt;&lt;p style=&quot;margin:0px;margin-left:4px;&quot;&gt;public String getMealName)&lt;/p&gt;&lt;p style=&quot;margin:0px;margin-left:4px;&quot;&gt;public boolean getDeal)&lt;/p&gt;&lt;p style=&quot;margin:0px;margin-left:4px;&quot;&gt;public double getDiscount)&lt;/p&gt;&lt;p style=&quot;margin:0px;margin-left:4px;&quot;&gt;protected void setDeal (boolean deal)&lt;/p&gt;&lt;p style=&quot;margin:0px;margin-left:4px;&quot;&gt;public double getPrice)&lt;/p&gt;&lt;p style=&quot;margin:0px;margin-left:4px;&quot;&gt;public void setMealName(String mealName)&lt;/p&gt;&lt;p style=&quot;margin:0px;margin-left:4px;&quot;&gt;public void set_Discount(double newDiscount)&lt;/p&gt;&lt;p style=&quot;margin:0px;margin-left:4px;&quot;&gt;public void addDishes (Dishes dish)&lt;/p&gt;&lt;p style=&quot;margin:0px;margin-left:4px;&quot;&gt;private void handleDishAddition(Dishes dish, Dishes existingDish,&lt;/p&gt;&lt;p style=&quot;margin:0px;margin-left:4px;&quot;&gt;String category)&lt;/p&gt;&lt;p style=&quot;margin:0px;margin-left:4px;&quot;&gt;private void assignDish(Dishes dish, String category)&lt;/p&gt;&lt;p style=&quot;margin:0px;margin-left:4px;&quot;&gt;public void setPrice(double price)&lt;/p&gt;&lt;p style=&quot;margin:0px;margin-left:4px;&quot;&gt;public void applyDiscount(double discount)&lt;/p&gt;&lt;p style=&quot;margin:0px;margin-left:4px;&quot;&gt;public void removeDiscount(double discount)&lt;/p&gt;&lt;p style=&quot;margin:0px;margin-left:4px;&quot;&gt;public void makeMeal (String type)&lt;/p&gt;&lt;p style=&quot;margin:0px;margin-left:4px;&quot;&gt;public boolean equals(Object obj)&lt;/p&gt;&lt;p style=&quot;margin:0px;margin-left:4px;&quot;&gt;public String toString()&lt;/p&gt;" style="verticalAlign=top;align=left;overflow=fill;fontSize=12;fontFamily=Helvetica;html=1;rounded=0;shadow=1;comic=0;labelBackgroundColor=none;strokeWidth=1;fillColor=#0050ef;fontColor=#ffffff;strokeColor=#1EACBC;" vertex="1" parent="1">
          <mxGeometry x="-1308" y="122" width="360" height="500" as="geometry" />
        </mxCell>
        <mxCell id="5hk5r0EJMx9-RgGo2-H--2" style="edgeStyle=orthogonalEdgeStyle;rounded=0;orthogonalLoop=1;jettySize=auto;html=1;entryX=0.5;entryY=1;entryDx=0;entryDy=0;fillColor=#0050ef;strokeColor=#1f39bd;shadow=1;strokeWidth=4;endArrow=block;endFill=0;" edge="1" parent="1" source="gZTD5GQBzk73rXgGusnl-11" target="gZTD5GQBzk73rXgGusnl-3">
          <mxGeometry relative="1" as="geometry">
            <Array as="points">
              <mxPoint x="-1233" y="975" />
              <mxPoint x="-900" y="975" />
            </Array>
          </mxGeometry>
        </mxCell>
        <mxCell id="gZTD5GQBzk73rXgGusnl-11" value="&lt;p style=&quot;margin:0px;margin-top:4px;text-align:center;&quot;&gt;&lt;i&gt;&amp;lt;&amp;lt;SubClass&amp;gt;&amp;gt;&lt;/i&gt;&lt;br&gt;&lt;b&gt;Manager&lt;/b&gt;&lt;/p&gt;&lt;p style=&quot;margin:0px;margin-top:4px;text-align:center;&quot;&gt;&lt;b&gt;&lt;br&gt;&lt;/b&gt;&lt;/p&gt;&lt;p style=&quot;margin: 0px 0px 0px 4px;&quot;&gt;all inherited from Person&lt;/p&gt;&lt;hr size=&quot;1&quot;&gt;&lt;p style=&quot;margin:0px;margin-left:4px;&quot;&gt;public Manager (String username, String password,&amp;nbsp;&lt;/p&gt;&lt;p style=&quot;margin:0px;margin-left:4px;&quot;&gt;String&amp;nbsp;&lt;span style=&quot;background-color: initial;&quot;&gt;userType, String name, String surname)&lt;/span&gt;&lt;/p&gt;&lt;p style=&quot;margin:0px;margin-left:4px;&quot;&gt;&lt;br&gt;&lt;/p&gt;&lt;p style=&quot;margin:0px;margin-left:4px;&quot;&gt;&lt;i&gt;&lt;br&gt;&lt;/i&gt;&lt;/p&gt;&lt;p style=&quot;margin:0px;margin-left:4px;&quot;&gt;&lt;i&gt;&lt;br&gt;&lt;/i&gt;&lt;/p&gt;&lt;p style=&quot;margin:0px;margin-left:4px;&quot;&gt;&lt;i&gt;&lt;br&gt;&lt;/i&gt;&lt;/p&gt;&lt;p style=&quot;margin:0px;margin-left:4px;&quot;&gt;&lt;i&gt;&lt;br&gt;&lt;/i&gt;&lt;/p&gt;&lt;p style=&quot;margin:0px;margin-left:4px;&quot;&gt;&lt;br&gt;&lt;/p&gt;&lt;p style=&quot;margin:0px;margin-left:4px;&quot;&gt;&lt;br&gt;&lt;/p&gt;" style="verticalAlign=top;align=left;overflow=fill;fontSize=12;fontFamily=Helvetica;html=1;rounded=0;shadow=1;comic=0;labelBackgroundColor=none;strokeWidth=1;fillColor=#0050ef;fontColor=#ffffff;strokeColor=#1EACBC;" vertex="1" parent="1">
          <mxGeometry x="-1394" y="1032" width="321" height="124" as="geometry" />
        </mxCell>
        <mxCell id="5hk5r0EJMx9-RgGo2-H--3" style="edgeStyle=orthogonalEdgeStyle;rounded=0;orthogonalLoop=1;jettySize=auto;html=1;entryX=0.584;entryY=1.005;entryDx=0;entryDy=0;fillColor=#0050ef;strokeColor=#1f39bd;shadow=1;strokeWidth=4;endArrow=block;endFill=0;entryPerimeter=0;" edge="1" parent="1" source="gZTD5GQBzk73rXgGusnl-12" target="gZTD5GQBzk73rXgGusnl-3">
          <mxGeometry relative="1" as="geometry">
            <Array as="points">
              <mxPoint x="-881" y="974" />
              <mxPoint x="-881" y="974" />
            </Array>
          </mxGeometry>
        </mxCell>
        <mxCell id="gZTD5GQBzk73rXgGusnl-12" value="&lt;p style=&quot;margin:0px;margin-top:4px;text-align:center;&quot;&gt;&lt;i&gt;&amp;lt;&amp;lt;SubClass&amp;gt;&amp;gt;&lt;/i&gt;&lt;br&gt;&lt;b&gt;Customer&lt;/b&gt;&lt;/p&gt;&lt;hr size=&quot;1&quot;&gt;&lt;p style=&quot;margin:0px;margin-left:4px;&quot;&gt;private String email&lt;/p&gt;&lt;p style=&quot;margin:0px;margin-left:4px;&quot;&gt;private String cellNumber&lt;/p&gt;&lt;p style=&quot;margin:0px;margin-left:4px;&quot;&gt;private Location loc&lt;/p&gt;&lt;p style=&quot;margin:0px;margin-left:4px;&quot;&gt;private String fidelity&lt;/p&gt;&lt;p style=&quot;margin:0px;margin-left:4px;&quot;&gt;private int points&lt;/p&gt;&lt;p style=&quot;margin:0px;margin-left:4px;&quot;&gt;private boolean freeOrder&lt;/p&gt;&lt;p style=&quot;margin:0px;margin-left:4px;&quot;&gt;protected Order activeOrder&lt;/p&gt;&lt;hr size=&quot;1&quot;&gt;&lt;p style=&quot;margin:0px;margin-left:4px;&quot;&gt;public String getEmail ()&lt;/p&gt;&lt;p style=&quot;margin:0px;margin-left:4px;&quot;&gt;public void setEmail(String email)&lt;/p&gt;&lt;p style=&quot;margin:0px;margin-left:4px;&quot;&gt;public String getCellNumber)&lt;/p&gt;&lt;p style=&quot;margin:0px;margin-left:4px;&quot;&gt;public void setCellNumber(String cellNumber)&lt;/p&gt;&lt;p style=&quot;margin:0px;margin-left:4px;&quot;&gt;public Location getLoc(&lt;/p&gt;&lt;p style=&quot;margin:0px;margin-left:4px;&quot;&gt;public void setLoc(Location loc)&lt;/p&gt;&lt;p style=&quot;margin:0px;margin-left:4px;&quot;&gt;public String getFidelity)&lt;/p&gt;&lt;p style=&quot;margin:0px;margin-left:4px;&quot;&gt;public Boolean setFidelity (String fidelity)&lt;/p&gt;&lt;p style=&quot;margin:0px;margin-left:4px;&quot;&gt;private boolean isValidFidelity(String fidelity)&lt;/p&gt;&lt;p style=&quot;margin:0px;margin-left:4px;&quot;&gt;public int getPoints ()&lt;/p&gt;&lt;p style=&quot;margin:0px;margin-left:4px;&quot;&gt;public void setPoints(double p)&lt;/p&gt;&lt;p style=&quot;margin:0px;margin-left:4px;&quot;&gt;public boolean pointsDiscount(int points)&lt;/p&gt;&lt;p style=&quot;margin:0px;margin-left:4px;&quot;&gt;public Order getActiveOrder)&lt;/p&gt;&lt;p style=&quot;margin:0px;margin-left:4px;&quot;&gt;public void setActiveOrder(Order o)&lt;/p&gt;&lt;p style=&quot;margin:0px;margin-left:4px;&quot;&gt;public boolean isFreeOrder)&lt;/p&gt;&lt;p style=&quot;margin:0px;margin-left:4px;&quot;&gt;public void setFreeOrder(boolean freeOrder)&lt;/p&gt;" style="verticalAlign=top;align=left;overflow=fill;fontSize=12;fontFamily=Helvetica;html=1;rounded=0;shadow=1;comic=0;labelBackgroundColor=none;strokeWidth=1;fillColor=#0050ef;fontColor=#ffffff;strokeColor=#1EACBC;" vertex="1" parent="1">
          <mxGeometry x="-1036" y="1032" width="272" height="402" as="geometry" />
        </mxCell>
        <mxCell id="5hk5r0EJMx9-RgGo2-H--4" style="edgeStyle=orthogonalEdgeStyle;rounded=0;orthogonalLoop=1;jettySize=auto;html=1;entryX=0.75;entryY=1;entryDx=0;entryDy=0;fillColor=#0050ef;strokeColor=#1f39bd;shadow=1;strokeWidth=4;endArrow=block;endFill=0;" edge="1" parent="1" source="5hk5r0EJMx9-RgGo2-H--1" target="gZTD5GQBzk73rXgGusnl-3">
          <mxGeometry relative="1" as="geometry">
            <Array as="points">
              <mxPoint x="-527" y="974" />
              <mxPoint x="-842" y="974" />
              <mxPoint x="-842" y="917" />
            </Array>
          </mxGeometry>
        </mxCell>
        <mxCell id="5hk5r0EJMx9-RgGo2-H--1" value="&lt;p style=&quot;margin:0px;margin-top:4px;text-align:center;&quot;&gt;&lt;i&gt;&amp;lt;&amp;lt;SubClass&amp;gt;&amp;gt;&lt;/i&gt;&lt;br&gt;&lt;b&gt;Courier&lt;/b&gt;&lt;/p&gt;&lt;hr size=&quot;1&quot;&gt;&lt;p style=&quot;margin:0px;margin-left:4px;&quot;&gt;protected String phoneNumber&lt;/p&gt;&lt;p style=&quot;margin:0px;margin-left:4px;&quot;&gt;protected int order Count&lt;/p&gt;&lt;p style=&quot;margin:0px;margin-left:4px;&quot;&gt;protected boolean onDuty&lt;/p&gt;&lt;p style=&quot;margin:0px;margin-left:4px;&quot;&gt;protected Location loc&lt;/p&gt;&lt;p style=&quot;margin:0px;margin-left:4px;&quot;&gt;protected ArrayList&amp;lt;Order&amp;gt; currentJobs&lt;/p&gt;&lt;hr size=&quot;1&quot;&gt;&lt;p style=&quot;margin:0px;margin-left:4px;&quot;&gt;public String getPhoneNumber)&lt;/p&gt;&lt;p style=&quot;margin:0px;margin-left:4px;&quot;&gt;public ArrayList&amp;lt;Order&amp;gt; getJobs)&lt;/p&gt;&lt;p style=&quot;margin:0px;margin-left:4px;&quot;&gt;public boolean available)&lt;/p&gt;&lt;p style=&quot;margin:0px;margin-left:4px;&quot;&gt;public void setOrder(Order o)&lt;/p&gt;&lt;p style=&quot;margin:0px;margin-left:4px;&quot;&gt;public void finishJob(Order o)&lt;/p&gt;&lt;p style=&quot;margin:0px;margin-left:4px;&quot;&gt;public void setPhoneNumber (String phoneNumber)&lt;/p&gt;&lt;p style=&quot;margin:0px;margin-left:4px;&quot;&gt;public boolean isOnDuty)&lt;/p&gt;&lt;p style=&quot;margin:0px;margin-left:4px;&quot;&gt;public void setOnDuty(boolean onDuty)&lt;/p&gt;&lt;p style=&quot;margin:0px;margin-left:4px;&quot;&gt;public Location getLoc(&lt;/p&gt;&lt;p style=&quot;margin:0px;margin-left:4px;&quot;&gt;public void setLoc(Location l)&lt;/p&gt;&lt;p style=&quot;margin:0px;margin-left:4px;&quot;&gt;public void setLoc(Double lat, Double longitude)&lt;/p&gt;&lt;p style=&quot;margin:0px;margin-left:4px;&quot;&gt;public int getOrderCount)&lt;/p&gt;&lt;p style=&quot;margin:0px;margin-left:4px;&quot;&gt;public boolean onDuty ()&lt;/p&gt;&lt;p style=&quot;margin:0px;margin-left:4px;&quot;&gt;public boolean equals (Object o)&lt;/p&gt;&lt;p style=&quot;margin:0px;margin-left:4px;&quot;&gt;public int hashCode()&lt;/p&gt;&lt;p style=&quot;margin:0px;margin-left:4px;&quot;&gt;public String toString()&lt;/p&gt;" style="verticalAlign=top;align=left;overflow=fill;fontSize=12;fontFamily=Helvetica;html=1;rounded=0;shadow=1;comic=0;labelBackgroundColor=none;strokeWidth=1;fillColor=#0050ef;fontColor=#ffffff;strokeColor=#1EACBC;" vertex="1" parent="1">
          <mxGeometry x="-727" y="1038" width="306" height="388" as="geometry" />
        </mxCell>
        <mxCell id="TG9W3KDDZiWp2sQddhFQ-2" value="&lt;p style=&quot;margin:0px;margin-top:4px;text-align:center;&quot;&gt;&lt;i&gt;&amp;lt;&amp;lt;class&amp;gt;&amp;gt;&lt;/i&gt;&lt;br&gt;&lt;b&gt;myFoodoraSystem&lt;/b&gt;&lt;/p&gt;&lt;hr size=&quot;1&quot;&gt;&lt;p style=&quot;margin:0px;margin-left:4px;&quot;&gt;&lt;span style=&quot;background-color: initial;&quot;&gt;--&lt;/span&gt;&lt;/p&gt;&lt;hr size=&quot;1&quot;&gt;&lt;p style=&quot;margin:0px;margin-left:4px;&quot;&gt;public static void main (String[] args)&lt;br&gt;&lt;/p&gt;&lt;p style=&quot;margin:0px;margin-left:4px;&quot;&gt;&lt;br&gt;&lt;/p&gt;&lt;p style=&quot;margin:0px;margin-left:4px;&quot;&gt;&lt;br&gt;&lt;/p&gt;&lt;p style=&quot;margin:0px;margin-left:4px;&quot;&gt;&lt;br&gt;&lt;/p&gt;" style="verticalAlign=top;align=left;overflow=fill;fontSize=12;fontFamily=Helvetica;html=1;rounded=0;shadow=1;comic=0;labelBackgroundColor=none;strokeWidth=1;fillColor=#0050ef;fontColor=#ffffff;strokeColor=#1EACBC;" vertex="1" parent="1">
          <mxGeometry x="-1242.5" y="-643" width="240" height="120" as="geometry" />
        </mxCell>
        <mxCell id="TG9W3KDDZiWp2sQddhFQ-10" value="&lt;p style=&quot;margin:0px;margin-top:4px;text-align:center;&quot;&gt;&lt;i&gt;&amp;lt;&amp;lt;class&amp;gt;&amp;gt;&lt;/i&gt;&lt;br&gt;&lt;b&gt;Order&lt;/b&gt;&lt;/p&gt;&lt;hr size=&quot;1&quot;&gt;&lt;p style=&quot;margin:0px;margin-left:4px;&quot;&gt;protected String orderName&lt;/p&gt;&lt;p style=&quot;margin:0px;margin-left:4px;&quot;&gt;protected String date&lt;/p&gt;&lt;p style=&quot;margin:0px;margin-left:4px;&quot;&gt;protected Double profit&lt;/p&gt;&lt;p style=&quot;margin:0px;margin-left:4px;&quot;&gt;protected boolean completedDelivery&lt;/p&gt;&lt;p style=&quot;margin:0px;margin-left:4px;&quot;&gt;protected ArrayList&amp;lt;Meal &amp;gt; meals&lt;/p&gt;&lt;p style=&quot;margin:0px;margin-left:4px;&quot;&gt;protected ArrayList&amp;lt;Dishes &amp;gt; dish&lt;/p&gt;&lt;p style=&quot;margin:0px;margin-left:4px;&quot;&gt;protected Restaurant r&lt;/p&gt;&lt;p style=&quot;margin:0px;margin-left:4px;&quot;&gt;protected Courier driver&lt;/p&gt;&lt;p style=&quot;margin:0px;margin-left:4px;&quot;&gt;protected Customer c&lt;/p&gt;&lt;hr size=&quot;1&quot;&gt;&lt;p style=&quot;margin:0px;margin-left:4px;&quot;&gt;public Order (String orderName, Restaurant r)&lt;/p&gt;&lt;p style=&quot;margin:0px;margin-left:4px;&quot;&gt;public Customer getCustomer)&lt;/p&gt;&lt;p style=&quot;margin:0px;margin-left:4px;&quot;&gt;public ArrayList&amp;lt;Meal&amp;gt; getMeals)&lt;/p&gt;&lt;p style=&quot;margin:0px;margin-left:4px;&quot;&gt;public ArrayList&amp;lt;Dishes&amp;gt; getDishes)&lt;/p&gt;&lt;p style=&quot;margin:0px;margin-left:4px;&quot;&gt;public void setDelivery(boolean t)&lt;/p&gt;&lt;p style=&quot;margin:0px;margin-left:4px;&quot;&gt;public void addMeal(Meal m)&lt;/p&gt;&lt;p style=&quot;margin:0px;margin-left:4px;&quot;&gt;public void addDish(Dishes d)&lt;/p&gt;&lt;p style=&quot;margin:0px;margin-left:4px;&quot;&gt;public void setCompleted (Boolean t)&lt;/p&gt;&lt;p style=&quot;margin:0px;margin-left:4px;&quot;&gt;public double getProfit)&lt;/p&gt;&lt;p style=&quot;margin:0px;margin-left:4px;&quot;&gt;public void setDate(String date)&lt;/p&gt;&lt;p style=&quot;margin:0px;margin-left:4px;&quot;&gt;public void setRestaurant (Restaurant r)&lt;/p&gt;&lt;p style=&quot;margin:0px;margin-left:4px;&quot;&gt;public String getOrderName)&lt;/p&gt;&lt;p style=&quot;margin:0px;margin-left:4px;&quot;&gt;public Restaurant getRestaurant(String orderName)&lt;/p&gt;&lt;p style=&quot;margin:0px;margin-left:4px;&quot;&gt;public Restaurant getRestaurant)&lt;/p&gt;&lt;p style=&quot;margin:0px;margin-left:4px;&quot;&gt;public void add20rder (Meal m, Dishes d)&lt;/p&gt;&lt;p style=&quot;margin:0px;margin-left:4px;&quot;&gt;public void finalizeOrder(String date, SystemState s)&lt;/p&gt;&lt;p style=&quot;margin:0px;margin-left:4px;&quot;&gt;public void setCustomer (Customer c)&lt;/p&gt;&lt;p style=&quot;margin:0px;margin-left:4px;&quot;&gt;public Stringil getDate ()&lt;/p&gt;&lt;p style=&quot;margin:0px;margin-left:4px;&quot;&gt;public void applyPolicies(SystemState systemState)&lt;/p&gt;&lt;p style=&quot;margin:0px;margin-left:4px;&quot;&gt;public String toString()&lt;/p&gt;" style="verticalAlign=top;align=left;overflow=fill;fontSize=12;fontFamily=Helvetica;html=1;rounded=0;shadow=1;comic=0;labelBackgroundColor=none;strokeWidth=1;fillColor=#0050ef;fontColor=#ffffff;strokeColor=#1EACBC;" vertex="1" parent="1">
          <mxGeometry x="-1474.5" y="-441" width="330" height="510" as="geometry" />
        </mxCell>
        <mxCell id="GzAqt1YYQ_uvV_aGIoIP-2" value="&lt;p style=&quot;margin:0px;margin-top:4px;text-align:center;&quot;&gt;&lt;i&gt;&amp;lt;&amp;lt;interface&amp;gt;&amp;gt;&lt;/i&gt;&lt;br&gt;&lt;b&gt;CommandVisitor&lt;/b&gt;&lt;/p&gt;&lt;hr size=&quot;1&quot;&gt;&lt;p style=&quot;margin:0px;margin-left:4px;&quot;&gt;&lt;span style=&quot;background-color: initial;&quot;&gt;__&lt;/span&gt;&lt;/p&gt;&lt;hr size=&quot;1&quot;&gt;&lt;p style=&quot;margin: 0px 0px 0px 4px;&quot;&gt;void visitAnyoneCommand&lt;/p&gt;&lt;p style=&quot;margin: 0px 0px 0px 4px;&quot;&gt;void visitCourierCommand&lt;/p&gt;&lt;p style=&quot;margin: 0px 0px 0px 4px;&quot;&gt;void visitCustomerCommand&lt;/p&gt;&lt;p style=&quot;margin: 0px 0px 0px 4px;&quot;&gt;void visitManagerCommand&lt;/p&gt;&lt;p style=&quot;margin: 0px 0px 0px 4px;&quot;&gt;void visitRestaurantCommand&lt;/p&gt;&lt;p style=&quot;margin:0px;margin-left:4px;&quot;&gt;&lt;br&gt;&lt;/p&gt;&lt;p style=&quot;margin:0px;margin-left:4px;&quot;&gt;&lt;br&gt;&lt;/p&gt;&lt;p style=&quot;margin:0px;margin-left:4px;&quot;&gt;&lt;br&gt;&lt;/p&gt;" style="verticalAlign=top;align=left;overflow=fill;fontSize=12;fontFamily=Helvetica;html=1;rounded=0;shadow=1;comic=0;labelBackgroundColor=none;strokeWidth=1;fillColor=#F030C3;fontColor=#ffffff;strokeColor=#1EACBC;" vertex="1" parent="1">
          <mxGeometry x="-1798" y="275" width="240" height="180" as="geometry" />
        </mxCell>
        <mxCell id="GzAqt1YYQ_uvV_aGIoIP-3" value="&lt;p style=&quot;margin:0px;margin-top:4px;text-align:center;&quot;&gt;&lt;i&gt;&amp;lt;&amp;lt;class&amp;gt;&amp;gt;&lt;/i&gt;&lt;br&gt;&lt;b&gt;Parse&lt;/b&gt;&lt;/p&gt;&lt;hr size=&quot;1&quot;&gt;&lt;p style=&quot;margin:0px;margin-left:4px;&quot;&gt;private SystemState systemState&lt;/p&gt;&lt;p style=&quot;margin:0px;margin-left:4px;&quot;&gt;&lt;span style=&quot;background-color: initial;&quot;&gt;&lt;/span&gt;&lt;/p&gt;&lt;p style=&quot;margin:0px;margin-left:4px;&quot;&gt;private CommandExecutor commandExecutor&lt;/p&gt;&lt;hr size=&quot;1&quot;&gt;&lt;p style=&quot;margin:0px;margin-left:4px;&quot;&gt;public Parse(ArrayList&amp;lt;User&amp;gt; users)&lt;/p&gt;&lt;p style=&quot;margin:0px;margin-left:4px;&quot;&gt;public boolean getLoop()&lt;/p&gt;&lt;p style=&quot;margin:0px;margin-left:4px;&quot;&gt;public void acceptCommand Visitor (String command,&amp;nbsp;&lt;span style=&quot;background-color: initial;&quot;&gt;CommandVisitor visitor)&lt;/span&gt;&lt;/p&gt;&lt;p style=&quot;margin:0px;margin-left:4px;&quot;&gt;public SystemState getSystemState()&lt;/p&gt;&lt;p style=&quot;margin:0px;margin-left:4px;&quot;&gt;public void setSystemState (SystemState systemState)&lt;/p&gt;&lt;p style=&quot;margin:0px;margin-left:4px;&quot;&gt;&lt;br&gt;&lt;/p&gt;&lt;p style=&quot;margin:0px;margin-left:4px;&quot;&gt;&lt;br&gt;&lt;/p&gt;&lt;p style=&quot;margin:0px;margin-left:4px;&quot;&gt;&lt;br&gt;&lt;/p&gt;" style="verticalAlign=top;align=left;overflow=fill;fontSize=12;fontFamily=Helvetica;html=1;rounded=0;shadow=1;comic=0;labelBackgroundColor=none;strokeWidth=1;fillColor=#0050ef;fontColor=#ffffff;strokeColor=#1EACBC;" vertex="1" parent="1">
          <mxGeometry x="-856.5" y="-635" width="430" height="197" as="geometry" />
        </mxCell>
        <mxCell id="GzAqt1YYQ_uvV_aGIoIP-4" value="&lt;p style=&quot;margin:0px;margin-top:4px;text-align:center;&quot;&gt;&lt;i&gt;&amp;lt;&amp;lt;class&amp;gt;&amp;gt;&lt;/i&gt;&lt;br&gt;&lt;b&gt;SystemState&lt;/b&gt;&lt;/p&gt;&lt;hr size=&quot;1&quot;&gt;&lt;p style=&quot;margin:0px;margin-left:4px;&quot;&gt;protected ArrayList&amp;lt;User &amp;gt; activeMembers&lt;/p&gt;&lt;p style=&quot;margin:0px;margin-left:4px;&quot;&gt;protected ArrayList&amp;lt;User &amp;gt; deactiveMembers&lt;/p&gt;&lt;p style=&quot;margin:0px;margin-left:4px;&quot;&gt;protected ArrayList&amp;lt;Order &amp;gt; activeOrders&lt;/p&gt;&lt;p style=&quot;margin:0px;margin-left:4px;&quot;&gt;protected ArrayList&amp;lt;Order &amp;gt; completedOrders&lt;/p&gt;&lt;p style=&quot;margin:0px;margin-left:4px;&quot;&gt;private static Boolean run&lt;/p&gt;&lt;p style=&quot;margin:0px;margin-left:4px;&quot;&gt;private Boolean auto&lt;/p&gt;&lt;p style=&quot;margin:0px;margin-left:4px;&quot;&gt;protected int userLoggedin&lt;/p&gt;&lt;p style=&quot;margin:0px;margin-left:4px;&quot;&gt;private Restaurant r&lt;/p&gt;&lt;p style=&quot;margin:0px;margin-left:4px;&quot;&gt;private Customer c&lt;/p&gt;&lt;p style=&quot;margin:0px;margin-left:4px;&quot;&gt;private Courier d&lt;/p&gt;&lt;p style=&quot;margin:0px;margin-left:4px;&quot;&gt;private Manager m&lt;/p&gt;&lt;p style=&quot;margin:0px;margin-left:4px;&quot;&gt;private Parse foodSys&lt;/p&gt;&lt;p style=&quot;margin:0px;margin-left:4px;&quot;&gt;private CommandExecutor commandExecutor&lt;/p&gt;&lt;p style=&quot;margin:0px;margin-left:4px;&quot;&gt;private BufferedReader br&lt;/p&gt;&lt;p style=&quot;margin:0px;margin-left:4px;&quot;&gt;private Meal newMeal&lt;/p&gt;&lt;p style=&quot;margin:0px;margin-left:4px;&quot;&gt;protected String[] systemPolicies&lt;/p&gt;&lt;p style=&quot;margin:0px;margin-left:4px;&quot;&gt;private Double markupPercent&lt;/p&gt;&lt;p style=&quot;margin:0px;margin-left:4px;&quot;&gt;private Double delivery Cost&lt;/p&gt;&lt;p style=&quot;margin:0px;margin-left:4px;&quot;&gt;private Double serviceFee&lt;/p&gt;&lt;p style=&quot;margin:0px;margin-left:4px;&quot;&gt;&lt;span style=&quot;background-color: initial;&quot;&gt;&lt;/span&gt;&lt;/p&gt;&lt;p style=&quot;margin:0px;margin-left:4px;&quot;&gt;private Double targetProfit&lt;/p&gt;&lt;hr size=&quot;1&quot;&gt;&lt;p style=&quot;margin:0px;margin-left:4px;&quot;&gt;public SystemState(Parse p)&lt;/p&gt;&lt;p style=&quot;margin:0px;margin-left:4px;&quot;&gt;public ArrayList&amp;lt;User &amp;gt; getActiveMembers)&lt;/p&gt;&lt;p style=&quot;margin:0px;margin-left:4px;&quot;&gt;public ArrayList&amp;lt;User&amp;gt; getDeactiveMembers ()&lt;/p&gt;&lt;p style=&quot;margin:0px;margin-left:4px;&quot;&gt;public void removeActiveMember(User u)&lt;/p&gt;&lt;p style=&quot;margin:0px;margin-left:4px;&quot;&gt;public void reactivateMember(User u)&lt;/p&gt;&lt;p style=&quot;margin:0px;margin-left:4px;&quot;&gt;public void removeUser (String username, String userType)&lt;/p&gt;&lt;p style=&quot;margin:0px;margin-left:4px;&quot;&gt;public void addActiveOrder(Order o)&lt;/p&gt;&lt;p style=&quot;margin:0px;margin-left:4px;&quot;&gt;public void addCompletedOrder(Order o)&lt;/p&gt;&lt;p style=&quot;margin:0px;margin-left:4px;&quot;&gt;public void setDelivery Policy (String set)&lt;/p&gt;&lt;p style=&quot;margin:0px;margin-left:4px;&quot;&gt;public String getDelivery Policy ()&lt;/p&gt;&lt;p style=&quot;margin:0px;margin-left:4px;&quot;&gt;public void setPricing Policy(String set)&lt;/p&gt;&lt;p style=&quot;margin:0px;margin-left:4px;&quot;&gt;public String getPricing Policy)&lt;/p&gt;&lt;p style=&quot;margin:0px;margin-left:4px;&quot;&gt;public void setActiveMembers(ArrayList&amp;lt;User&amp;gt; activeMembers)&lt;/p&gt;&lt;p style=&quot;margin:0px;margin-left:4px;&quot;&gt;public ArrayList&amp;lt;Order &amp;gt; getActiveOrders)&lt;/p&gt;&lt;p style=&quot;margin:0px;margin-left:4px;&quot;&gt;public ArrayList&amp;lt;Order&amp;gt; getCompletedOrders ()&lt;/p&gt;&lt;p style=&quot;margin:0px;margin-left:4px;&quot;&gt;public Boolean getRun ()&lt;/p&gt;&lt;p style=&quot;margin:0px;margin-left:4px;&quot;&gt;public void setRun(Boolean run)&lt;/p&gt;&lt;p style=&quot;margin:0px;margin-left:4px;&quot;&gt;public Meal getNewMeal)&lt;/p&gt;&lt;p style=&quot;margin:0px;margin-left:4px;&quot;&gt;public void setNewMeal (Meal newMeal, boolean set)&lt;/p&gt;&lt;p style=&quot;margin:0px;margin-left:4px;&quot;&gt;public int getUserLoggedIn()&lt;/p&gt;&lt;p style=&quot;margin:0px;margin-left:4px;&quot;&gt;public void setUserLoggedIn(int userLoggedln)&lt;/p&gt;&lt;p style=&quot;margin:0px;margin-left:4px;&quot;&gt;public Restaurant getR)&lt;/p&gt;&lt;p style=&quot;margin:0px;margin-left:4px;&quot;&gt;public void setR(Restaurant r)&lt;/p&gt;&lt;p style=&quot;margin:0px;margin-left:4px;&quot;&gt;public Customer getC()&lt;/p&gt;&lt;p style=&quot;margin:0px;margin-left:4px;&quot;&gt;public void setC(Customer c)&lt;/p&gt;&lt;p style=&quot;margin:0px;margin-left:4px;&quot;&gt;public Courier getD()&lt;/p&gt;&lt;p style=&quot;margin:0px;margin-left:4px;&quot;&gt;public void setD(Courier d)&lt;/p&gt;&lt;p style=&quot;margin:0px;margin-left:4px;&quot;&gt;public Manager getM)&lt;/p&gt;&lt;p style=&quot;margin:0px;margin-left:4px;&quot;&gt;public void setM(Manager m)&lt;/p&gt;&lt;p style=&quot;margin:0px;margin-left:4px;&quot;&gt;public void exitLoop()&lt;/p&gt;&lt;p style=&quot;margin:0px;margin-left:4px;&quot;&gt;public Double getMarkupPercent)&lt;/p&gt;&lt;p style=&quot;margin:0px;margin-left:4px;&quot;&gt;public void setMarkupPercent(Double markupPercent)&lt;/p&gt;&lt;p style=&quot;margin:0px;margin-left:4px;&quot;&gt;public Double getDeliveryCost)&lt;/p&gt;&lt;p style=&quot;margin:0px;margin-left:4px;&quot;&gt;public void setDelivery Cost(Double deliveryCost)&lt;/p&gt;&lt;p style=&quot;margin:0px;margin-left:4px;&quot;&gt;public Double getServiceFee&lt;/p&gt;&lt;p style=&quot;margin:0px;margin-left:4px;&quot;&gt;public void set ServiceFee(Double serviceFee)&lt;/p&gt;&lt;p style=&quot;margin:0px;margin-left:4px;&quot;&gt;public Double getTargetProfit ()&lt;/p&gt;&lt;p style=&quot;margin:0px;margin-left:4px;&quot;&gt;public void setTargetProfit (Double targetProfit)&lt;/p&gt;&lt;p style=&quot;margin:0px;margin-left:4px;&quot;&gt;public Boolean getAuto()&lt;/p&gt;&lt;p style=&quot;margin:0px;margin-left:4px;&quot;&gt;public void setAuto(Boolean auto)&lt;/p&gt;&lt;p style=&quot;margin:0px;margin-left:4px;&quot;&gt;public Parse getFoodSys)&lt;/p&gt;&lt;p style=&quot;margin:0px;margin-left:4px;&quot;&gt;public void setFoodSys(Parse foodSys)&lt;/p&gt;&lt;p style=&quot;margin:0px;margin-left:4px;&quot;&gt;public CommandExecutor getCommandExecutor)&lt;/p&gt;&lt;p style=&quot;margin:0px;margin-left:4px;&quot;&gt;public void setCommandExecutor(CommandExecutor&lt;/p&gt;&lt;p style=&quot;margin:0px;margin-left:4px;&quot;&gt;commandExecutor)&lt;/p&gt;&lt;p style=&quot;margin:0px;margin-left:4px;&quot;&gt;public BufferedReader getBr)&lt;/p&gt;&lt;p style=&quot;margin:0px;margin-left:4px;&quot;&gt;public void setBr(BufferedReader br)&lt;/p&gt;&lt;p style=&quot;margin:0px;margin-left:4px;&quot;&gt;public void showRestaurants)&lt;/p&gt;&lt;p style=&quot;margin:0px;margin-left:4px;&quot;&gt;protected void showCustomers)&lt;/p&gt;&lt;p style=&quot;margin:0px;margin-left:4px;&quot;&gt;protected void showCouriers)&lt;/p&gt;&lt;p style=&quot;margin:0px;margin-left:4px;&quot;&gt;public ArrayList&amp;lt;Courier&amp;gt; getAvailableCourier ()&lt;/p&gt;&lt;p style=&quot;margin:0px;margin-left:4px;&quot;&gt;public void bubbleSortCouriersByDeliveries(ArrayList&amp;lt;Courier&amp;gt;&lt;span style=&quot;background-color: initial;&quot;&gt;couriers&lt;/span&gt;&lt;/p&gt;&lt;p style=&quot;margin:0px;margin-left:4px;&quot;&gt;public void&amp;nbsp;&lt;span style=&quot;background-color: initial;&quot;&gt;bubbleSortByCompletedDeliveries(ArrayList&amp;lt;Restaurant&amp;gt;&lt;/span&gt;&lt;span style=&quot;background-color: initial;&quot;&gt;restaurants)&lt;/span&gt;&lt;/p&gt;&lt;p style=&quot;margin:0px;margin-left:4px;&quot;&gt;public void printCommands ()&lt;/p&gt;&lt;p style=&quot;margin:0px;margin-left:4px;&quot;&gt;&lt;br&gt;&lt;/p&gt;&lt;p style=&quot;margin:0px;margin-left:4px;&quot;&gt;&lt;br&gt;&lt;/p&gt;&lt;p style=&quot;margin:0px;margin-left:4px;&quot;&gt;&lt;br&gt;&lt;/p&gt;" style="verticalAlign=top;align=left;overflow=fill;fontSize=12;fontFamily=Helvetica;html=1;rounded=0;shadow=1;comic=0;labelBackgroundColor=none;strokeWidth=1;fillColor=#0050ef;fontColor=#ffffff;strokeColor=#1EACBC;" vertex="1" parent="1">
          <mxGeometry x="-203" y="-624" width="483" height="1140" as="geometry" />
        </mxCell>
        <mxCell id="GzAqt1YYQ_uvV_aGIoIP-5" value="&lt;p style=&quot;margin:0px;margin-top:4px;text-align:center;&quot;&gt;&lt;i&gt;&amp;lt;&amp;lt;class&amp;gt;&amp;gt;&lt;/i&gt;&lt;br&gt;&lt;b&gt;CommandExecutor&lt;/b&gt;&lt;/p&gt;&lt;hr size=&quot;1&quot;&gt;&lt;p style=&quot;margin:0px;margin-left:4px;&quot;&gt;&lt;span style=&quot;background-color: initial;&quot;&gt;private SystemState systemState&lt;br&gt;&lt;/span&gt;&lt;/p&gt;&lt;hr size=&quot;1&quot;&gt;&lt;p style=&quot;margin:0px;margin-left:4px;&quot;&gt;public CommandExecutor(SystemState systemState)&lt;/p&gt;&lt;p style=&quot;margin:0px;margin-left:4px;&quot;&gt;public void visitManagerCommand (String[] command)&lt;/p&gt;&lt;p style=&quot;margin:0px;margin-left:4px;&quot;&gt;public void visitCustomerCommand (String[] command)&lt;/p&gt;&lt;p style=&quot;margin:0px;margin-left:4px;&quot;&gt;public void visitCourier Command (String[] command)&lt;/p&gt;&lt;p style=&quot;margin:0px;margin-left:4px;&quot;&gt;public void visitRestaurantCommand (String[] command)&lt;/p&gt;&lt;p style=&quot;margin:0px;margin-left:4px;&quot;&gt;public void visitAnyoneCommand (String[] command)&lt;/p&gt;&lt;p style=&quot;margin:0px;margin-left:4px;&quot;&gt;public void runTest (String filename)&lt;/p&gt;&lt;p style=&quot;margin:0px;margin-left:4px;&quot;&gt;&lt;span style=&quot;background-color: initial;&quot;&gt;&amp;nbsp;&lt;/span&gt;&lt;br&gt;&lt;/p&gt;&lt;p style=&quot;margin:0px;margin-left:4px;&quot;&gt;&lt;br&gt;&lt;/p&gt;&lt;p style=&quot;margin:0px;margin-left:4px;&quot;&gt;&lt;br&gt;&lt;/p&gt;&lt;p style=&quot;margin:0px;margin-left:4px;&quot;&gt;&lt;br&gt;&lt;/p&gt;" style="verticalAlign=top;align=left;overflow=fill;fontSize=12;fontFamily=Helvetica;html=1;rounded=0;shadow=1;comic=0;labelBackgroundColor=none;strokeWidth=1;fillColor=#F030C3;fontColor=#ffffff;strokeColor=#1EACBC;" vertex="1" parent="1">
          <mxGeometry x="-1846" y="604" width="320" height="210" as="geometry" />
        </mxCell>
        <mxCell id="GzAqt1YYQ_uvV_aGIoIP-7" style="edgeStyle=orthogonalEdgeStyle;rounded=0;orthogonalLoop=1;jettySize=auto;html=1;entryX=0.464;entryY=1.009;entryDx=0;entryDy=0;entryPerimeter=0;strokeColor=#f030c3;strokeWidth=4;dashed=1;" edge="1" parent="1" source="GzAqt1YYQ_uvV_aGIoIP-5" target="GzAqt1YYQ_uvV_aGIoIP-2">
          <mxGeometry relative="1" as="geometry" />
        </mxCell>
        <mxCell id="GzAqt1YYQ_uvV_aGIoIP-9" value="&lt;font style=&quot;font-size: 41px;&quot;&gt;CLUI&lt;/font&gt;" style="text;html=1;align=center;verticalAlign=middle;whiteSpace=wrap;rounded=0;" vertex="1" parent="1">
          <mxGeometry x="-1725" y="204" width="60" height="30" as="geometry" />
        </mxCell>
      </root>
    </mxGraphModel>
  </diagram>
</mxfile>
